<svg xmlns="http://www.w3.org/2000/svg" xmlns:xlink="http://www.w3.org/1999/xlink"><symbol id="document" viewBox="0 0 40 43"><g fill="none">
<path d="M15.9933 23.8724V22.5867C15.9933 22.2251 16.2746 21.9439 16.6362 21.9439H30.779C31.1406 21.9439 31.4219 22.2251 31.4219 22.5867V23.8724C31.4219 24.234 31.1406 24.5153 30.779 24.5153H16.6362C16.2746 24.5153 15.9933 24.234 15.9933 23.8724Z" fill="white"/>
<path d="M16.6362 27.0867H30.779C31.1406 27.0867 31.4219 27.368 31.4219 27.7296V29.0153C31.4219 29.3769 31.1406 29.6581 30.779 29.6581H16.6362C16.2746 29.6581 15.9933 29.3769 15.9933 29.0153V27.7296C15.9933 27.368 16.2746 27.0867 16.6362 27.0867Z" fill="white"/>
<path d="M16.6362 32.2296H30.779C31.1406 32.2296 31.4219 32.5108 31.4219 32.8724V34.1581C31.4219 34.5198 31.1406 34.801 30.779 34.801H16.6362C16.2746 34.801 15.9933 34.5198 15.9933 34.1581V32.8724C15.9933 32.5108 16.2746 32.2296 16.6362 32.2296Z" fill="white"/>
<path fill-rule="evenodd" clip-rule="evenodd" d="M8.27901 15.8148C4.18382 15.8148 0.864014 12.495 0.864014 8.3998C0.864014 4.30461 4.18382 0.984802 8.27901 0.984802C11.723 0.984802 14.6186 3.33277 15.4524 6.51529H28.2076C29.2723 6.51529 30.7589 7.13806 31.5022 7.88136L37.7701 14.1492C38.5134 14.8925 39.1362 16.3791 39.1362 17.4439V40.5867C39.1362 41.6515 38.2723 42.5153 37.2076 42.5153H10.2076C9.14285 42.5153 8.27901 41.6515 8.27901 40.5867L8.27901 15.8148ZM10.8504 15.3568C13.4729 14.3871 15.3971 11.977 15.6626 9.08672H26.279V17.4439C26.279 18.5086 27.1429 19.3724 28.2076 19.3724H36.5647V39.9439H10.8504V15.3568ZM29.6741 9.6894C29.5335 9.54877 29.192 9.36797 28.8504 9.24743V16.801H36.404C36.2835 16.4595 36.1027 16.118 35.9621 15.9773L29.6741 9.6894ZM9.27901 9.39984H13.279V7.39984H9.27901V3.39984H7.27901V7.39984H3.27901V9.39984H7.27901V13.3998H9.27901V9.39984Z" fill="white"/>
</g></symbol><symbol id="email" viewBox="0 0 16 13"><g fill="none">
<path d="M14.7503 10.8491C14.7503 10.9914 14.6248 11.117 14.4825 11.117H2.16106C2.01876 11.117 1.89321 10.9914 1.89321 10.8491V4.42057C2.06899 4.62146 2.26151 4.80561 2.47077 4.97302C3.66776 5.89378 4.87312 6.83128 6.03662 7.80226C6.66441 8.32961 7.44287 8.97414 8.31341 8.97414H8.32178H8.33015C9.20068 8.97414 9.97914 8.32961 10.6069 7.80226C11.7704 6.83128 12.9758 5.89378 14.1728 4.97302C14.382 4.80561 14.5746 4.62146 14.7503 4.42057V10.8491ZM14.7503 2.05171C14.7503 2.7632 14.064 3.69233 13.5199 4.11923C12.3982 4.99813 11.2766 5.88541 10.1633 6.77269C9.71966 7.13262 8.91609 7.90271 8.33015 7.90271H8.32178H8.31341C7.72747 7.90271 6.9239 7.13262 6.48026 6.77269C5.36698 5.88541 4.24533 4.99813 3.12367 4.11923C2.37033 3.52492 1.89321 2.69624 1.89321 1.742C1.89321 1.5997 2.01876 1.47414 2.16106 1.47414H14.4825C14.8006 1.47414 14.7503 1.84244 14.7503 2.05171ZM15.8218 1.742C15.8218 1.00539 15.2191 0.40271 14.4825 0.40271H2.16106C1.42446 0.40271 0.821777 1.00539 0.821777 1.742V10.8491C0.821777 11.5857 1.42446 12.1884 2.16106 12.1884H14.4825C15.2191 12.1884 15.8218 11.5857 15.8218 10.8491V1.742Z" fill="#3E9CDC"/>
</g></symbol><symbol id="file" viewBox="0 0 18 21"><g fill="none">
<path d="M16.8125 4.60899L13.3304 1.12685C12.9174 0.713902 12.0915 0.36792 11.5 0.36792H1.50002C0.9085 0.36792 0.428589 0.847831 0.428589 1.43935V19.2965C0.428589 19.888 0.9085 20.3679 1.50002 20.3679H16.5C17.0915 20.3679 17.5714 19.888 17.5714 19.2965V6.43935C17.5714 5.84783 17.2255 5.02194 16.8125 4.60899ZM11.8572 1.88578C12.0469 1.95274 12.2366 2.05319 12.3148 2.13131L15.8081 5.62462C15.8862 5.70274 15.9866 5.89247 16.0536 6.08221H11.8572V1.88578ZM16.1429 18.9394H1.85716V1.79649H10.4286V6.43935C10.4286 7.03087 10.9085 7.51078 11.5 7.51078H16.1429V18.9394ZM4.7143 9.29649V10.0108C4.7143 10.2117 4.87055 10.3679 5.07145 10.3679H12.9286C13.1295 10.3679 13.2857 10.2117 13.2857 10.0108V9.29649C13.2857 9.0956 13.1295 8.93935 12.9286 8.93935H5.07145C4.87055 8.93935 4.7143 9.0956 4.7143 9.29649ZM12.9286 11.7965H5.07145C4.87055 11.7965 4.7143 11.9527 4.7143 12.1536V12.8679C4.7143 13.0688 4.87055 13.2251 5.07145 13.2251H12.9286C13.1295 13.2251 13.2857 13.0688 13.2857 12.8679V12.1536C13.2857 11.9527 13.1295 11.7965 12.9286 11.7965ZM12.9286 14.6536H5.07145C4.87055 14.6536 4.7143 14.8099 4.7143 15.0108V15.7251C4.7143 15.926 4.87055 16.0822 5.07145 16.0822H12.9286C13.1295 16.0822 13.2857 15.926 13.2857 15.7251V15.0108C13.2857 14.8099 13.1295 14.6536 12.9286 14.6536Z" fill="#272733"/>
</g></symbol><symbol id="icon-close" viewBox="0 0 20 20"><g fill="none"><path d="M.293 18.291a1 1 0 101.414 1.414L10 11.413l8.292 8.292a1 1 0 101.414-1.414l-8.292-8.292 8.292-8.292A1 1 0 1018.291.293L9.999 8.585 1.707.293A1 1 0 10.293 1.707L8.585 10 .293 18.291z"/></g></symbol><symbol id="logo" viewBox="0 0 245 21"><g fill="none">
<path d="M0.689706 20.5V0.619999H5.28171V16.468H14.9137V20.5H0.689706ZM24.5188 20.668C23.0441 20.668 21.7001 20.3787 20.4868 19.8C19.2735 19.2213 18.2375 18.4653 17.3788 17.532C16.5201 16.58 15.8481 15.4973 15.3628 14.284C14.8961 13.0707 14.6628 11.82 14.6628 10.532C14.6628 9.22533 14.9055 7.96533 15.3908 6.752C15.8948 5.53867 16.5855 4.47467 17.4628 3.56C18.3588 2.62667 19.4135 1.88933 20.6268 1.348C21.8401 0.787999 23.1655 0.507999 24.6028 0.507999C26.0775 0.507999 27.4215 0.797332 28.6348 1.376C29.8481 1.95467 30.8841 2.72 31.7428 3.672C32.6015 4.624 33.2641 5.70667 33.7308 6.92C34.1975 8.13333 34.4308 9.36533 34.4308 10.616C34.4308 11.9227 34.1788 13.1827 33.6748 14.396C33.1895 15.6093 32.5081 16.6827 31.6308 17.616C30.7535 18.5307 29.7081 19.268 28.4948 19.828C27.2815 20.388 25.9561 20.668 24.5188 20.668ZM19.3388 10.588C19.3388 11.3533 19.4508 12.1 19.6748 12.828C19.8988 13.5373 20.2255 14.172 20.6548 14.732C21.1028 15.292 21.6535 15.74 22.3068 16.076C22.9601 16.412 23.7068 16.58 24.5468 16.58C25.4241 16.58 26.1895 16.4027 26.8428 16.048C27.4961 15.6933 28.0375 15.236 28.4668 14.676C28.8961 14.0973 29.2135 13.4533 29.4188 12.744C29.6428 12.016 29.7548 11.2787 29.7548 10.532C29.7548 9.76667 29.6428 9.02933 29.4188 8.32C29.1948 7.592 28.8588 6.95733 28.4108 6.416C27.9628 5.856 27.4121 5.41733 26.7588 5.1C26.1241 4.764 25.3868 4.596 24.5468 4.596C23.6695 4.596 22.9041 4.77333 22.2508 5.128C21.6161 5.464 21.0748 5.912 20.6268 6.472C20.1975 7.032 19.8708 7.676 19.6468 8.404C19.4415 9.11333 19.3388 9.84133 19.3388 10.588ZM37.0842 20.5V0.619999H46.0442C46.9776 0.619999 47.8362 0.815999 48.6202 1.208C49.4229 1.6 50.1136 2.11333 50.6922 2.748C51.2709 3.38267 51.7189 4.10133 52.0362 4.904C52.3722 5.70667 52.5402 6.51867 52.5402 7.34C52.5402 7.956 52.4656 8.55333 52.3162 9.132C52.1669 9.692 51.9522 10.224 51.6722 10.728C51.3922 11.232 51.0469 11.6893 50.6362 12.1C50.2442 12.492 49.7962 12.828 49.2922 13.108L53.6602 20.5H48.4802L44.6722 14.088H41.6762V20.5H37.0842ZM41.6762 10.084H45.8762C46.4176 10.084 46.8842 9.832 47.2762 9.328C47.6682 8.80533 47.8642 8.14267 47.8642 7.34C47.8642 6.51867 47.6402 5.86533 47.1922 5.38C46.7442 4.89467 46.2589 4.652 45.7362 4.652H41.6762V10.084ZM69.8141 16.468V20.5H55.842V0.619999H69.5621V4.652H60.434V8.516H68.274V12.24H60.434V16.468H69.8141ZM88.2838 20.5V8.6L83.9718 17.252H81.5078L77.1958 8.6V20.5H72.6038V0.619999H77.5878L82.7398 11.008L87.9198 0.619999H92.8758V20.5H88.2838ZM96.6936 20.5V0.619999H101.286V20.5H96.6936ZM105.088 20.5V0.619999H113.572C114.524 0.619999 115.392 0.815999 116.176 1.208C116.979 1.6 117.66 2.11333 118.22 2.748C118.799 3.38267 119.247 4.10133 119.564 4.904C119.9 5.70667 120.068 6.51867 120.068 7.34C120.068 8.21733 119.909 9.05733 119.592 9.86C119.293 10.6627 118.864 11.3813 118.304 12.016C117.763 12.6507 117.1 13.1547 116.316 13.528C115.532 13.9013 114.664 14.088 113.712 14.088H109.68V20.5H105.088ZM109.68 10.084H113.432C113.973 10.084 114.44 9.85067 114.832 9.384C115.224 8.91733 115.42 8.236 115.42 7.34C115.42 6.87333 115.355 6.472 115.224 6.136C115.112 5.8 114.953 5.52 114.748 5.296C114.543 5.072 114.309 4.91333 114.048 4.82C113.787 4.708 113.525 4.652 113.264 4.652H109.68V10.084ZM134.461 6.444C134.405 6.36933 134.209 6.22933 133.873 6.024C133.537 5.81867 133.117 5.604 132.613 5.38C132.109 5.156 131.559 4.96 130.961 4.792C130.364 4.624 129.767 4.54 129.169 4.54C127.527 4.54 126.705 5.09067 126.705 6.192C126.705 6.528 126.789 6.808 126.957 7.032C127.144 7.256 127.405 7.46133 127.741 7.648C128.096 7.816 128.535 7.97467 129.057 8.124C129.58 8.27333 130.187 8.44133 130.877 8.628C131.829 8.88933 132.688 9.17867 133.453 9.496C134.219 9.79467 134.863 10.1773 135.385 10.644C135.927 11.092 136.337 11.6427 136.617 12.296C136.916 12.9493 137.065 13.7333 137.065 14.648C137.065 15.768 136.851 16.72 136.421 17.504C136.011 18.2693 135.46 18.8947 134.769 19.38C134.079 19.8467 133.285 20.192 132.389 20.416C131.493 20.6213 130.569 20.724 129.617 20.724C128.889 20.724 128.143 20.668 127.377 20.556C126.612 20.444 125.865 20.2853 125.137 20.08C124.409 19.856 123.7 19.5947 123.009 19.296C122.337 18.9973 121.712 18.652 121.133 18.26L123.149 14.256C123.224 14.3493 123.467 14.5267 123.877 14.788C124.288 15.0493 124.792 15.3107 125.389 15.572C126.005 15.8333 126.687 16.0667 127.433 16.272C128.18 16.4773 128.936 16.58 129.701 16.58C131.325 16.58 132.137 16.0853 132.137 15.096C132.137 14.7227 132.016 14.4147 131.773 14.172C131.531 13.9293 131.195 13.7147 130.765 13.528C130.336 13.3227 129.823 13.136 129.225 12.968C128.647 12.8 128.012 12.6133 127.321 12.408C126.407 12.128 125.613 11.8293 124.941 11.512C124.269 11.176 123.709 10.7933 123.261 10.364C122.832 9.93467 122.505 9.44 122.281 8.88C122.076 8.32 121.973 7.66667 121.973 6.92C121.973 5.87467 122.169 4.95067 122.561 4.148C122.953 3.34533 123.485 2.67333 124.157 2.132C124.829 1.572 125.604 1.152 126.481 0.871999C127.377 0.591999 128.32 0.451999 129.309 0.451999C130 0.451999 130.681 0.517332 131.353 0.647999C132.025 0.778666 132.669 0.946666 133.285 1.152C133.901 1.35733 134.471 1.59067 134.993 1.852C135.535 2.11333 136.029 2.37467 136.477 2.636L134.461 6.444ZM148.3 16.58C149.084 16.58 149.747 16.4213 150.288 16.104C150.829 15.768 151.268 15.3293 151.604 14.788C151.94 14.2467 152.173 13.6307 152.304 12.94C152.453 12.2307 152.528 11.512 152.528 10.784V0.619999H157.12V10.784C157.12 12.1653 156.943 13.4533 156.588 14.648C156.252 15.8427 155.72 16.888 154.992 17.784C154.283 18.68 153.368 19.3893 152.248 19.912C151.147 20.416 149.831 20.668 148.3 20.668C146.713 20.668 145.36 20.3973 144.24 19.856C143.12 19.3147 142.205 18.596 141.496 17.7C140.805 16.7853 140.292 15.7307 139.956 14.536C139.639 13.3413 139.48 12.0907 139.48 10.784V0.619999H144.072V10.784C144.072 11.5493 144.147 12.2773 144.296 12.968C144.445 13.6587 144.688 14.2747 145.024 14.816C145.36 15.3573 145.789 15.7867 146.312 16.104C146.853 16.4213 147.516 16.58 148.3 16.58ZM176.358 20.5V8.6L172.046 17.252H169.582L165.27 8.6V20.5H160.678V0.619999H165.662L170.814 11.008L175.994 0.619999H180.95V20.5H176.358ZM184.376 20.5V15.936H188.044V20.5H184.376Z" fill="white"/>
<path d="M196.059 9.132V20.5H191.467V0.619999H195.051L204.319 12.296V0.619999H208.911V20.5H205.215L196.059 9.132ZM226.685 16.468V20.5H212.713V0.619999H226.433V4.652H217.305V8.516H225.145V12.24H217.305V16.468H226.685ZM244.623 4.652H238.575V20.5H233.983V4.652H227.907V0.619999H244.623V4.652Z" fill="#42A9ED"/>
</g></symbol><symbol id="mail" viewBox="0 0 36 29"><g fill="none">
<path d="M33.4286 25.6071C33.4286 25.9487 33.1272 26.25 32.7857 26.25H3.21429C2.87277 26.25 2.57143 25.9487 2.57143 25.6071V10.1786C2.9933 10.6607 3.45536 11.1027 3.95759 11.5045C6.83036 13.7143 9.72322 15.9643 12.5156 18.2946C14.0223 19.5603 15.8906 21.1071 17.9799 21.1071H18H18.0201C20.1094 21.1071 21.9777 19.5603 23.4844 18.2946C26.2768 15.9643 29.1696 13.7143 32.0424 11.5045C32.5446 11.1027 33.0067 10.6607 33.4286 10.1786V25.6071ZM33.4286 4.49329C33.4286 6.20088 31.7813 8.43079 30.4754 9.45535C27.7835 11.5647 25.0915 13.6942 22.4196 15.8237C21.3549 16.6875 19.4263 18.5357 18.0201 18.5357H18H17.9799C16.5737 18.5357 14.6451 16.6875 13.5804 15.8237C10.9085 13.6942 8.21652 11.5647 5.52455 9.45535C3.71652 8.02901 2.57143 6.04017 2.57143 3.74999C2.57143 3.40847 2.87277 3.10713 3.21429 3.10713H32.7857C33.5491 3.10713 33.4286 3.99106 33.4286 4.49329ZM36 3.74999C36 1.98213 34.5536 0.535706 32.7857 0.535706H3.21429C1.44643 0.535706 0 1.98213 0 3.74999V25.6071C0 27.375 1.44643 28.8214 3.21429 28.8214H32.7857C34.5536 28.8214 36 27.375 36 25.6071V3.74999Z" fill="white"/>
</g></symbol><symbol id="money" viewBox="0 0 40 27"><g fill="none">
<path d="M15.9286 18.5357V16.6071H18.5V10.8214H18.4598C18.1384 11.3237 17.8371 11.5446 17.3549 11.9665L15.808 10.3594L18.7812 7.60713H21.0714V16.6071H23.6429V18.5357H15.9286ZM26.2143 13.3928C26.2143 9.7366 24.0045 5.03571 19.7857 5.03571C15.567 5.03571 13.3571 9.7366 13.3571 13.3928C13.3571 17.0491 15.567 21.75 19.7857 21.75C24.0045 21.75 26.2143 17.0491 26.2143 13.3928ZM36.5 18.5357C33.6674 18.5357 31.3571 20.846 31.3571 23.6786H8.21429C8.21429 20.846 5.90402 18.5357 3.07143 18.5357V8.24999C5.90402 8.24999 8.21429 5.93972 8.21429 3.10713H31.3571C31.3571 5.93972 33.6674 8.24999 36.5 8.24999V18.5357ZM39.0714 1.82142C39.0714 1.11829 38.4888 0.535706 37.7857 0.535706H1.78571C1.08259 0.535706 0.5 1.11829 0.5 1.82142V24.9643C0.5 25.6674 1.08259 26.25 1.78571 26.25H37.7857C38.4888 26.25 39.0714 25.6674 39.0714 24.9643V1.82142Z" fill="white"/>
</g></symbol><symbol id="percent" viewBox="0 0 31 32"><g fill="none">
<path d="M25.7858 23.9643C25.7858 25.3705 24.6206 26.5357 23.2144 26.5357C21.8081 26.5357 20.643 25.3705 20.643 23.9643C20.643 22.558 21.8081 21.3928 23.2144 21.3928C24.6206 21.3928 25.7858 22.558 25.7858 23.9643ZM10.3572 8.5357C10.3572 9.94195 9.19207 11.1071 7.78582 11.1071C6.37957 11.1071 5.21439 9.94195 5.21439 8.5357C5.21439 7.12945 6.37957 5.96427 7.78582 5.96427C9.19207 5.96427 10.3572 7.12945 10.3572 8.5357ZM30.9287 23.9643C30.9287 19.7053 27.4733 16.25 23.2144 16.25C18.9555 16.25 15.5001 19.7053 15.5001 23.9643C15.5001 28.2232 18.9555 31.6786 23.2144 31.6786C27.4733 31.6786 30.9287 28.2232 30.9287 23.9643ZM29.0001 2.10713C29.0001 1.404 28.4175 0.821411 27.7144 0.821411H24.5001C24.0983 0.821411 23.7166 1.0223 23.4756 1.34373L2.26127 29.6294C2.10055 29.8504 2.0001 30.1116 2.0001 30.3928C2.0001 31.096 2.58269 31.6786 3.28582 31.6786H6.5001C6.90189 31.6786 7.28359 31.4777 7.52466 31.1562L28.7389 2.87052C28.8997 2.64954 29.0001 2.38838 29.0001 2.10713ZM15.5001 8.5357C15.5001 4.27677 12.0447 0.821411 7.78582 0.821411C3.52689 0.821411 0.0715332 4.27677 0.0715332 8.5357C0.0715332 12.7946 3.52689 16.25 7.78582 16.25C12.0447 16.25 15.5001 12.7946 15.5001 8.5357Z" fill="white"/>
</g></symbol><symbol id="search.svg" viewBox="0 0 35 35"><g fill="none">
<path d="M23.9285 14.9286C23.9285 19.8906 19.8906 23.9286 14.9285 23.9286C9.96645 23.9286 5.9285 19.8906 5.9285 14.9286C5.9285 9.96651 9.96645 5.92856 14.9285 5.92856C19.8906 5.92856 23.9285 9.96651 23.9285 14.9286ZM34.2142 31.6429C34.2142 30.9598 33.933 30.2969 33.4709 29.8348L26.5803 22.9442C28.2075 20.5937 29.0714 17.7812 29.0714 14.9286C29.0714 7.11383 22.7432 0.785706 14.9285 0.785706C7.11377 0.785706 0.785645 7.11383 0.785645 14.9286C0.785645 22.7433 7.11377 29.0714 14.9285 29.0714C17.7812 29.0714 20.5937 28.2076 22.9441 26.5803L29.8348 33.4509C30.2968 33.933 30.9598 34.2143 31.6428 34.2143C33.049 34.2143 34.2142 33.0491 34.2142 31.6429Z" fill="white"/>
</g></symbol><symbol id="vk" viewBox="0 0 12 14"><g fill="none">
<path d="M11.1804 9.28625C11.1804 9.93665 11.0574 10.5079 10.8113 11.0001C10.5652 11.4923 10.2341 11.8995 9.81812 12.2218C9.32593 12.6085 8.78394 12.8839 8.19214 13.048C7.6062 13.212 6.85913 13.2941 5.95093 13.2941H0.712646V0.207153H5.33569C6.29663 0.207153 7.02319 0.245239 7.51538 0.321411C8.01343 0.391724 8.47925 0.544067 8.91284 0.778442C9.38159 1.0304 9.73022 1.36731 9.95874 1.78918C10.1931 2.21106 10.3103 2.69739 10.3103 3.24817C10.3103 3.88684 10.1492 4.4552 9.8269 4.95325C9.5105 5.45129 9.07104 5.8175 8.50854 6.05188V6.12219C9.31714 6.29211 9.9646 6.64075 10.4509 7.16809C10.9373 7.68958 11.1804 8.39563 11.1804 9.28625ZM6.97046 3.90735C6.97046 3.69641 6.91479 3.47961 6.80347 3.25696C6.698 3.0343 6.53101 2.87317 6.30249 2.77356C6.08569 2.67981 5.82788 2.63 5.52905 2.62415C5.23608 2.61243 4.79663 2.60657 4.21069 2.60657H3.98218V5.37512H4.39526C4.95776 5.37512 5.35034 5.36926 5.573 5.35754C5.80151 5.34583 6.03589 5.2843 6.27612 5.17297C6.53979 5.04993 6.72144 4.88 6.82104 4.66321C6.92065 4.44641 6.97046 4.19446 6.97046 3.90735ZM7.79663 9.22473C7.79663 8.82043 7.7146 8.50403 7.55054 8.27551C7.38647 8.047 7.14038 7.87415 6.81226 7.75696C6.61304 7.68079 6.33765 7.63977 5.98608 7.63391C5.64038 7.62219 5.17456 7.61633 4.58862 7.61633H3.98218V10.8947H4.15796C5.01343 10.8947 5.60522 10.8888 5.93335 10.8771C6.26147 10.8654 6.59546 10.7863 6.9353 10.6398C7.23413 10.5109 7.45093 10.3234 7.58569 10.0773C7.72632 9.82532 7.79663 9.54114 7.79663 9.22473Z" fill="#3E9CDC"/>
</g></symbol></svg>